<svg id="Layer_1" enable-background="new 0 0 450 450" viewBox="0 0 450 450" xmlns="http://www.w3.org/2000/svg"><g><g fill="#b5d5f5"><path d="m229.96 320.09c0-2.59-2.1-4.7-4.7-4.7-2.59 0-4.7 2.1-4.7 4.7v56.63c0 2.59 2.1 4.7 4.7 4.7 2.59 0 4.7-2.1 4.7-4.7z"/><path d="m158.55 294.41c1.83-1.83 1.83-4.81 0-6.64s-4.81-1.83-6.64 0l-40.04 40.04c-1.83 1.83-1.83 4.81 0 6.64s4.81 1.83 6.64 0z"/><path d="m298.61 287.77c-1.83-1.83-4.81-1.83-6.64 0s-1.83 4.81 0 6.64l40.04 40.04c1.83 1.83 4.81 1.83 6.64 0s1.83-4.81 0-6.64z"/></g><path d="m128.36 90.96h11.11c1.18-21.86 10.52-41.54 25.04-56.06 15.55-15.55 37.03-25.17 60.75-25.17s45.21 9.62 60.75 25.17c14.52 14.52 23.86 34.2 25.04 56.06h11.11c18.54 0 35.39 7.58 47.6 19.79s19.79 29.06 19.79 47.6c0 18.54-7.58 35.39-19.79 47.6s-29.06 19.79-47.6 19.79h-193.8c-18.54 0-35.39-7.58-47.6-19.79s-19.79-29.06-19.79-47.6c0-18.54 7.58-35.39 19.79-47.6s29.06-19.79 47.6-19.79z" fill="#b5d5f5"/><g fill="#a6cef7"><path d="m155.01 46.18c2.34-3.31 4.9-6.45 7.67-9.39h44.57c2.59 0 4.7 2.1 4.7 4.7s-2.1 4.7-4.7 4.7h-52.24z"/><path d="m140.97 78.95c.63-3.2 1.44-6.33 2.41-9.39h101.04c2.59 0 4.7 2.1 4.7 4.7s-2.1 4.7-4.7 4.7z"/></g><g fill="#fff"><path d="m130.5 196.36c0 2.59 2.1 4.7 4.7 4.7 2.59 0 4.7-2.1 4.7-4.7v-46.22c0-6.89 2.82-13.17 7.37-17.71 4.55-4.55 10.82-7.37 17.71-7.37s13.17 2.82 17.71 7.37c4.55 4.55 7.37 10.82 7.37 17.71v46.22c0 2.59 2.1 4.7 4.7 4.7 2.59 0 4.7-2.1 4.7-4.7v-46.22c0-9.49-3.88-18.11-10.12-24.35-6.25-6.25-14.87-10.12-24.35-10.12-9.49 0-18.11 3.88-24.35 10.12-6.25 6.25-10.12 14.87-10.12 24.35v46.22z"/><path d="m135.2 162.22c-2.59 0-4.7 2.1-4.7 4.7 0 2.59 2.1 4.7 4.7 4.7h59.57c2.59 0 4.7-2.1 4.7-4.7 0-2.59-2.1-4.7-4.7-4.7z"/><path d="m224.67 196.36c0 2.59 2.1 4.7 4.7 4.7 2.59 0 4.7-2.1 4.7-4.7v-76c0-2.59-2.1-4.7-4.7-4.7-2.59 0-4.7 2.1-4.7 4.7z"/><path d="m229.37 115.66c-2.59 0-4.7 2.1-4.7 4.7 0 2.59 2.1 4.7 4.7 4.7h29.1c9.66 0 17.56 7.9 17.56 17.56 0 4.82-1.98 9.21-5.16 12.4-3.18 3.18-7.57 5.16-12.4 5.16h-29.1c-2.59 0-4.7 2.1-4.7 4.7 0 2.59 2.1 4.7 4.7 4.7h29.1c7.42 0 14.15-3.03 19.04-7.91 4.88-4.88 7.91-11.62 7.91-19.04 0-14.82-12.13-26.95-26.95-26.95h-29.1z"/><path d="m310.63 196.36c0 2.59 2.1 4.7 4.7 4.7 2.59 0 4.7-2.1 4.7-4.7v-76c0-2.59-2.1-4.7-4.7-4.7-2.59 0-4.7 2.1-4.7 4.7z"/></g><path d="m121.53 222.01v5.56c0 4.88 1.99 9.31 5.2 12.52s7.64 5.2 12.52 5.2h19.45c.35.98.73 1.94 1.12 2.88.39.95.81 1.89 1.25 2.83l-13.75 13.75c-3.45 3.45-5.17 7.99-5.17 12.53s1.72 9.08 5.17 12.53l9.21 9.21c3.45 3.45 7.99 5.17 12.53 5.17s9.08-1.72 12.53-5.17l13.75-13.75c.94.44 1.88.86 2.83 1.25.94.39 1.9.76 2.87 1.12v19.45c0 4.88 1.99 9.31 5.2 12.52s7.64 5.2 12.52 5.2h13.02c4.88 0 9.31-1.99 12.52-5.2s5.2-7.64 5.2-12.52v-19.45c.98-.35 1.94-.73 2.88-1.12.95-.39 1.89-.81 2.83-1.25l13.75 13.75c3.45 3.45 7.99 5.17 12.53 5.17s9.08-1.72 12.53-5.17l9.21-9.21c3.45-3.45 5.17-7.99 5.17-12.53s-1.72-9.08-5.17-12.53l-13.75-13.75c.44-.94.85-1.88 1.25-2.83.39-.94.76-1.9 1.12-2.87h19.45c4.88 0 9.31-1.99 12.52-5.2s5.2-7.64 5.2-12.52v-5.56h-207.49z" fill="#83939e"/><path d="m270.04 222.01h-89.56c.25 11.99 5.21 22.82 13.11 30.72 8.11 8.11 19.3 13.12 31.67 13.12s23.57-5.01 31.67-13.12c7.9-7.9 12.86-18.73 13.11-30.72z" fill="#fff"/><path d="m93.86 317.6c9.63 0 18.34 3.9 24.65 10.21s10.21 15.02 10.21 24.65-3.9 18.34-10.21 24.65-15.02 10.21-24.65 10.21c-9.62 0-18.34-3.9-24.65-10.21-6.3-6.31-10.21-15.03-10.21-24.65 0-9.63 3.9-18.34 10.21-24.65s15.03-10.21 24.65-10.21z" fill="#98db7c"/><path d="m225.26 372.02c9.62 0 18.34 3.9 24.65 10.21s10.21 15.02 10.21 24.65-3.9 18.34-10.21 24.65-15.02 10.21-24.65 10.21-18.34-3.9-24.65-10.21-10.21-15.02-10.21-24.65 3.9-18.34 10.21-24.65c6.31-6.3 15.03-10.21 24.65-10.21z" fill="#5c9cee"/><path d="m356.66 317.6c9.63 0 18.34 3.9 24.65 10.21s10.21 15.02 10.21 24.65-3.9 18.34-10.21 24.65-15.02 10.21-24.65 10.21-18.34-3.9-24.65-10.21-10.21-15.02-10.21-24.65 3.9-18.34 10.21-24.65 15.02-10.21 24.65-10.21z" fill="#ffc107"/></g></svg>