<svg xmlns="http://www.w3.org/2000/svg" version="1.1" xmlns:xlink="http://www.w3.org/1999/xlink" xmlns:svgjs="http://svgjs.com/svgjs" width="512" height="512" x="0" y="0" viewBox="0 0 501 501.334" style="enable-background:new 0 0 512 512" xml:space="preserve"><g><path d="M352.215 501.336h-192V448h-30.266c-31.058-.125-58.836-19.367-69.867-48.398l-11.2-30a10.667 10.667 0 0 0-10-6.934h-6.667A32.002 32.002 0 0 1 .613 325.336c2.535-15.203 16.535-26.668 32.668-26.668h24a53.338 53.338 0 0 1 49.067 32.266l12.668 29.468a21.341 21.341 0 0 0 19.597 12.934h21.602c1.867-26.137 10.531-46.8 25.332-61.336l2.933-2.8c-67.734-22.4-113.597-77.333-113.597-138.532a129.2 129.2 0 0 1 21.332-70.402V55.867a112.274 112.274 0 0 1 11.734-50L111.016 0h18.398a84.809 84.809 0 0 1 60.402 24.934L194.883 30a220.247 220.247 0 0 1 122.933 0l5.067-5.066A84.805 84.805 0 0 1 383.148 0h18.399l2.933 5.867a112.274 112.274 0 0 1 11.735 50v44.399a129.2 129.2 0 0 1 21.332 70.402c0 61.2-45.867 116.133-113.598 138.531l2.531 2.535a85.876 85.876 0 0 1 25.735 61.067zM181.547 480h149.336V372.8a64.403 64.403 0 0 0-19.336-45.734l-29.598-28.933 18.934-4.399c67.863-16 115.332-66.535 115.332-123.066a108.24 108.24 0 0 0-19.469-61.2l-1.863-2.667V55.867a90.956 90.956 0 0 0-6.801-34.531h-4.934a63.586 63.586 0 0 0-45.199 18.797l-14.402 14.27-6.266-2.137a198.437 198.437 0 0 0-122.133 0l-6.265 2.136-14.403-14.27a63.586 63.586 0 0 0-45.199-18.796h-4.933a90.956 90.956 0 0 0-6.801 34.531v50.934l-1.867 2.668a108.266 108.266 0 0 0-19.465 61.199c0 56.531 47.465 107.066 115.332 122.934L230.48 298l-30 29.336c-11.066 10.797-17.464 26.797-19.066 47.73-.898 11.051-10.113 19.567-21.2 19.602h-21.6a42.67 42.67 0 0 1-39.2-25.867l-12.531-29.465A32.007 32.007 0 0 0 57.414 320h-24c-5.734 0-10.8 3.867-11.598 8.8-.55 3.09.29 6.266 2.293 8.68a10.673 10.673 0 0 0 8.106 3.856h6.531a32.126 32.126 0 0 1 30 20.797L79.95 392c7.856 20.813 27.754 34.605 50 34.668h30.266c11.781 0 21.332 9.55 21.332 21.332zm0 0" fill="#737373" data-original="#000000" opacity="1"></path></g></svg>