<svg xmlns="http://www.w3.org/2000/svg" version="1.1" xmlns:xlink="http://www.w3.org/1999/xlink" xmlns:svgjs="http://svgjs.com/svgjs" width="512" height="512" x="0" y="0" viewBox="0 0 128 128" style="enable-background:new 0 0 512 512" xml:space="preserve" class=""><g><path d="M94 0H34A34 34 0 0 0 0 34v60a34 34 0 0 0 34 34h60a34 34 0 0 0 34-34V34A34 34 0 0 0 94 0zm30 94a30 30 0 0 1-30 30H34A30 30 0 0 1 4 94V34A30 30 0 0 1 34 4h60a30 30 0 0 1 30 30z" fill="#737373" data-original="#000000" opacity="1"></path><path d="M64 33a31 31 0 1 0 31 31 31 31 0 0 0-31-31zm0 58a27 27 0 1 1 27-27 27 27 0 0 1-27 27zM100 22a6 6 0 1 0 6 6 6 6 0 0 0-6-6zm0 8a2 2 0 1 1 2-2 2 2 0 0 1-2 2z" fill="#737373" data-original="#000000" opacity="1"></path></g></svg>