<svg width="109" height="110" viewBox="0 0 109 110" fill="none" xmlns="http://www.w3.org/2000/svg">
<mask id="path-1-inside-1_25_259" fill="white">
<path fill-rule="evenodd" clip-rule="evenodd" d="M0.887451 70.7207C7.75394 93.2929 28.7714 109.721 53.634 109.721C84.0731 109.721 108.749 85.0968 108.749 54.721C108.749 26.2279 87.0371 2.79528 59.223 0V1.0052C86.4854 3.7964 107.749 26.7823 107.749 54.721C107.749 84.5425 83.5227 108.721 53.634 108.721C29.3281 108.721 8.76712 92.7316 1.93394 70.7207H0.887451Z"/>
</mask>
<path d="M0.887451 70.7207V69.7207H-0.461996L-0.0692617 71.0117L0.887451 70.7207ZM59.223 0L59.323 -0.994988L58.223 -1.10554V0H59.223ZM59.223 1.0052H58.223V1.90804L59.1211 2L59.223 1.0052ZM1.93394 70.7207L2.88898 70.4242L2.67058 69.7207H1.93394V70.7207ZM-0.0692617 71.0117C6.9221 93.9944 28.3202 110.721 53.634 110.721V108.721C29.2226 108.721 8.58578 92.5914 1.84416 70.4297L-0.0692617 71.0117ZM53.634 110.721C84.6234 110.721 109.749 85.651 109.749 54.721H107.749C107.749 84.5425 83.5227 108.721 53.634 108.721V110.721ZM109.749 54.721C109.749 25.7075 87.6413 1.85096 59.323 -0.994988L59.123 0.994988C86.433 3.7396 107.749 26.7483 107.749 54.721H109.749ZM58.223 0V1.0052H60.223V0H58.223ZM108.749 54.721C108.749 26.2625 87.0905 2.85313 59.3248 0.0103974L59.1211 2C85.8802 4.73968 106.749 27.3021 106.749 54.721H108.749ZM53.634 109.721C84.0731 109.721 108.749 85.0968 108.749 54.721H106.749C106.749 83.9883 82.9724 107.721 53.634 107.721V109.721ZM0.978903 71.0172C7.93862 93.4357 28.8789 109.721 53.634 109.721V107.721C29.7774 107.721 9.59562 92.0276 2.88898 70.4242L0.978903 71.0172ZM1.93394 69.7207H0.887451V71.7207H1.93394V69.7207Z" fill="#CBC8C8" mask="url(#path-1-inside-1_25_259)"/>
</svg>
